<?xml version="1.0" standalone="no"?>
<!DOCTYPE svg PUBLIC "-//W3C//DTD SVG 20010904//EN"
 "http://www.w3.org/TR/2001/REC-SVG-20010904/DTD/svg10.dtd">
<svg version="1.0" xmlns="http://www.w3.org/2000/svg"
 width="250.000000pt" height="250.000000pt" viewBox="0 0 250.000000 250.000000"
 preserveAspectRatio="xMidYMid meet">
<metadata>
Created by potrace 1.14, written by Peter Selinger 2001-2017
</metadata>
<g transform="translate(0.000000,250.000000) scale(0.100000,-0.100000)"
fill="#000000" stroke="none">
<path d="M999 2053 c-17 -32 -43 -78 -57 -102 -14 -25 -38 -67 -53 -93 -16
-27 -29 -51 -29 -53 0 -2 -28 -52 -63 -112 -35 -59 -88 -153 -119 -208 -134
-241 -258 -464 -281 -505 -11 -19 -38 -66 -59 -104 l-38 -69 77 -136 c42 -75
95 -170 118 -211 l42 -75 246 -2 246 -3 20 29 c12 16 21 34 21 39 0 6 6 17 13
24 6 7 21 31 32 53 11 22 23 42 26 45 19 17 79 142 73 153 -4 6 -3 9 1 5 7 -7
54 56 55 73 0 4 -11 7 -25 7 -14 0 -22 -5 -18 -11 4 -6 1 -7 -8 -1 -21 12
-339 12 -331 -1 3 -6 0 -5 -9 1 -8 6 -31 10 -52 9 -21 -1 -36 1 -35 4 3 7 50
89 163 291 l82 145 121 0 c71 0 118 3 115 9 -4 5 0 6 8 0 8 -5 63 -9 122 -9
92 -1 107 1 104 15 -2 8 -9 14 -16 12 -7 -1 -10 2 -7 7 5 8 -50 123 -74 156
-4 6 -24 42 -45 80 -21 39 -43 77 -49 85 -17 24 -36 59 -36 68 0 5 85 9 188 9
103 -1 193 3 200 7 7 4 12 4 12 -1 0 -6 55 -9 78 -4 2 1 -7 20 -21 44 -14 23
-35 60 -47 82 -97 175 -133 234 -141 229 -5 -3 -6 2 -3 10 3 8 -3 26 -13 40
l-18 25 -242 1 -241 0 -33 -57z m501 -48 c0 -1 -10 -10 -22 -21 -14 -12 -18
-13 -10 -3 6 9 10 18 7 21 -3 2 2 5 10 5 8 0 15 -1 15 -2z m61 -12 c13 -16 12
-17 -3 -4 -10 7 -18 15 -18 17 0 8 8 3 21 -13z m-25 -15 c4 -7 3 -8 -5 -4 -6
4 -20 2 -29 -6 -15 -12 -16 -11 -3 5 16 20 27 22 37 5z m-76 -33 c-7 -8 -17
-15 -23 -15 -6 0 -2 7 9 15 25 19 30 19 14 0z m86 0 c-1 -8 -5 -17 -8 -21 -5
-4 -4 16 1 34 3 9 9 -1 7 -13z m-30 -2 c-2 -3 -6 -3 -9 -1 -3 2 -15 -6 -28
-17 l-24 -20 18 21 c9 11 24 21 32 21 8 0 13 -2 11 -4z m54 -26 c0 -2 -8 -11
-18 -20 -15 -14 -19 -15 -19 -2 0 8 4 12 8 9 4 -2 10 0 14 6 6 10 15 14 15 7z
m-79 -34 c13 -16 12 -17 -3 -4 -10 7 -18 15 -18 17 0 8 8 3 21 -13z m110 -10
c13 -16 12 -17 -3 -4 -10 7 -18 15 -18 17 0 8 8 3 21 -13z m-34 -8 c0 -8 -3
-13 -5 -10 -3 3 -10 0 -17 -5 -8 -7 -12 -5 -12 5 0 8 4 12 8 9 4 -2 10 0 14 6
9 14 12 13 12 -5z m-152 -5 c3 -6 -1 -7 -9 -4 -18 7 -21 14 -7 14 6 0 13 -4
16 -10z m230 -8 c-3 -3 -11 0 -18 7 -9 10 -8 11 6 5 10 -3 15 -9 12 -12z
m-155 4 c0 -2 -8 -10 -17 -17 -16 -13 -17 -12 -4 4 13 16 21 21 21 13z m124
-14 c2 -4 -4 -8 -14 -8 -10 0 -16 4 -14 8 3 4 9 8 14 8 5 0 11 -4 14 -8z
m-183 -19 c13 -16 12 -17 -3 -4 -10 7 -18 15 -18 17 0 8 8 3 21 -13z m76 4 c0
-7 -9 -14 -20 -14 -19 -2 -19 -2 -1 12 11 8 19 15 20 15 0 0 1 -6 1 -13z m63
10 c0 -2 -8 -11 -18 -20 -15 -14 -19 -15 -19 -2 0 8 4 12 8 9 4 -2 10 0 14 6
6 10 15 14 15 7z m-162 -28 c9 -12 9 -16 -1 -16 -7 0 -14 9 -14 20 -1 11 -1
18 0 16 2 -2 8 -11 15 -20z m-33 -9 c3 -6 -1 -7 -9 -4 -18 7 -21 14 -7 14 6 0
13 -4 16 -10z m224 -4 c9 -11 9 -16 -1 -22 -7 -4 -10 -4 -6 1 4 4 3 14 -3 22
-6 7 -9 13 -6 13 2 0 10 -6 16 -14z m-99 -11 c-14 -17 -30 -20 -30 -4 0 5 4 8
9 4 5 -3 12 -1 16 5 3 5 9 10 12 10 3 0 0 -7 -7 -15z m-136 -4 c3 -5 -2 -15
-12 -22 -15 -12 -16 -12 -5 2 7 9 10 19 6 22 -3 4 -4 7 0 7 3 0 8 -4 11 -9z
m171 -20 c-9 -8 -36 -10 -30 -2 2 4 11 8 20 8 8 0 13 -3 10 -6z m125 4 c0 -1
-10 -10 -22 -21 -14 -12 -18 -13 -10 -3 6 9 10 18 7 21 -3 2 2 5 10 5 8 0 15
-1 15 -2z m35 -5 c3 -6 -1 -7 -9 -4 -18 7 -21 14 -7 14 6 0 13 -4 16 -10z
m-91 -29 c-2 -3 -12 3 -22 13 -16 17 -16 18 5 5 12 -7 20 -15 17 -18z m-36 -2
c9 -12 9 -16 -1 -16 -7 0 -14 9 -14 20 -1 11 -1 18 0 16 2 -2 8 -11 15 -20z
m112 17 c0 -2 -8 -10 -17 -17 -16 -13 -17 -12 -4 4 13 16 21 21 21 13z m-321
-30 c9 -11 9 -16 -1 -22 -7 -4 -10 -4 -6 1 4 4 3 14 -3 22 -6 7 -9 13 -6 13 2
0 10 -6 16 -14z m91 -21 c0 -5 -5 -3 -10 5 -5 8 -10 20 -10 25 0 6 5 3 10 -5
5 -8 10 -19 10 -25z m275 15 c10 -11 16 -20 13 -20 -3 0 -13 9 -23 20 -10 11
-16 20 -13 20 3 0 13 -9 23 -20z m-395 -6 c0 -8 -19 -13 -24 -6 -3 5 1 9 9 9
8 0 15 -2 15 -3z m80 2 c0 -2 -7 -7 -16 -10 -8 -3 -12 -2 -9 4 6 10 25 14 25
6z m130 -2 c0 -8 -19 -13 -24 -6 -3 5 1 9 9 9 8 0 15 -2 15 -3z m-273 -117 c0
-7 -9 -14 -20 -14 -19 -2 -19 -2 -1 12 11 8 19 15 20 15 0 0 1 -6 1 -13z m0
-42 c0 -8 -3 -13 -5 -10 -3 3 -15 -3 -26 -12 -15 -14 -18 -14 -8 -2 6 9 8 20
4 24 -4 5 -2 5 5 1 6 -3 14 -2 18 4 9 14 12 13 12 -5z m75 -39 c3 3 8 1 12 -4
11 -18 -25 -8 -41 12 -18 21 -18 21 3 3 11 -9 23 -14 26 -11z m-75 1 c0 -7 -9
-14 -20 -14 -19 -2 -19 -2 -1 12 11 8 19 15 20 15 0 0 1 -6 1 -13z m-41 -53
c1 -9 0 -13 -4 -10 -3 4 -7 14 -8 22 -1 9 0 13 4 10 3 -4 7 -14 8 -22z m-47
-30 c-7 -9 -14 -23 -15 -31 -2 -8 -5 -18 -8 -21 -4 -3 -5 3 -3 14 4 22 29 65
36 59 2 -3 -2 -12 -10 -21z m191 22 c0 -2 -7 -7 -16 -10 -8 -3 -12 -2 -9 4 6
10 25 14 25 6z m-40 -9 c0 -2 -8 -11 -18 -20 -15 -14 -19 -15 -19 -2 0 8 4 12
8 9 4 -2 10 0 14 6 6 10 15 14 15 7z m-134 -35 c-17 -16 -18 -16 -5 5 7 12 15
20 18 17 3 -2 -3 -12 -13 -22z m191 11 c0 -9 -4 -10 -14 -2 -7 6 -13 12 -13
14 0 1 6 2 13 2 8 0 14 -6 14 -14z m-5 -28 c2 3 5 -2 5 -10 0 -10 -4 -12 -12
-5 -7 5 -16 6 -21 2 -5 -4 -6 -3 -2 2 4 5 2 16 -4 25 -10 12 -7 12 8 -2 11 -9
23 -15 26 -12z m-55 -2 c-4 -3 -1 -13 6 -22 11 -14 10 -14 -5 -2 -16 12 -16
31 -1 31 4 0 3 -3 0 -7z m98 -2 c3 -5 2 -12 -3 -15 -5 -3 -9 1 -9 9 0 17 3 19
12 6z m-214 -18 c13 -16 12 -17 -3 -4 -10 7 -18 15 -18 17 0 8 8 3 21 -13z
m-81 -3 c0 -5 -2 -10 -4 -10 -3 0 -8 5 -11 10 -3 6 -1 10 4 10 6 0 11 -4 11
-10z m40 -3 c0 -2 -10 -12 -22 -23 l-23 -19 19 23 c18 21 26 27 26 19z m92
-12 c2 3 5 -2 5 -10 0 -19 0 -19 -23 7 -12 14 -13 18 -3 10 9 -6 18 -10 21 -7z
m67 -12 c2 -1 -5 -1 -16 0 -11 0 -20 7 -20 14 0 10 4 10 16 1 9 -7 18 -13 20
-15z m82 4 c-6 -8 -9 -16 -6 -19 3 -2 -2 -5 -10 -5 -13 0 -13 3 2 19 19 21 31
25 14 5z m33 4 c3 -5 -2 -15 -12 -22 -15 -12 -16 -12 -5 2 7 9 10 19 6 22 -3
4 -4 7 0 7 3 0 8 -4 11 -9z m-329 -21 c3 -6 -1 -7 -9 -4 -18 7 -21 14 -7 14 6
0 13 -4 16 -10z m96 -3 c-6 -8 -9 -16 -6 -19 3 -2 -12 -4 -33 -3 -21 1 -46 -5
-57 -14 -20 -16 -20 -16 -2 5 12 15 27 21 47 19 16 -1 35 4 41 11 6 8 14 14
16 14 3 0 0 -6 -6 -13z m135 -12 c-1 -8 -5 -17 -8 -21 -5 -4 -4 16 1 34 3 9 9
-1 7 -13z m-102 -4 c3 -5 -2 -15 -12 -22 -15 -12 -16 -12 -5 2 7 9 10 19 6 22
-3 4 -4 7 0 7 3 0 8 -4 11 -9z m-395 -534 c8 -10 7 -14 -2 -14 -8 0 -14 6 -14
14 0 7 1 13 2 13 2 0 8 -6 14 -13z m258 -22 c0 -8 -3 -13 -5 -10 -3 3 -12 -1
-21 -7 -10 -8 -9 -4 3 10 23 26 23 26 23 7z m-57 -20 c14 -19 14 -19 -2 -6
-10 7 -18 18 -18 24 0 6 1 8 3 6 1 -2 9 -13 17 -24z m150 15 c-8 -5 -19 -10
-25 -10 -5 0 -3 5 5 10 8 5 20 10 25 10 6 0 3 -5 -5 -10z m-310 -25 c-5 -7 -8
-14 -5 -17 3 -2 -2 -5 -10 -5 -10 0 -12 4 -5 12 5 7 8 14 5 17 -3 2 2 5 10 5
10 0 12 -4 5 -12z m80 1 c-7 -7 -13 -7 -20 0 -6 6 -3 10 10 10 13 0 16 -4 10
-10z m195 -6 c10 -11 16 -20 13 -20 -3 0 -13 9 -23 20 -10 11 -16 20 -13 20 3
0 13 -9 23 -20z m-134 -7 c13 -16 12 -17 -3 -4 -10 7 -18 15 -18 17 0 8 8 3
21 -13z m76 2 c0 -8 -3 -13 -5 -10 -3 3 -12 -1 -21 -7 -10 -8 -9 -4 3 10 23
26 23 26 23 7z m-99 -16 c9 -12 9 -16 -1 -16 -7 0 -14 9 -14 20 -1 11 -1 18 0
16 2 -2 8 -11 15 -20z m-98 -13 c0 -2 -6 -9 -14 -15 -11 -9 -16 -9 -22 0 -4 7
-3 9 4 5 6 -3 13 -2 17 4 6 10 15 14 15 6z m55 -34 c-3 -3 3 -15 12 -26 18
-21 18 -21 -5 -2 -12 11 -20 21 -17 24 3 3 -3 15 -12 26 -18 21 -18 21 5 2 12
-11 20 -21 17 -24z m165 18 c0 -5 -5 -10 -11 -10 -5 0 -7 5 -4 10 3 6 8 10 11
10 2 0 4 -4 4 -10z m-201 -13 c8 -10 7 -14 -2 -14 -8 0 -14 6 -14 14 0 7 1 13
2 13 2 0 8 -6 14 -13z m241 -1 c0 -2 -7 -7 -16 -10 -8 -3 -12 -2 -9 4 6 10 25
14 25 6z m-140 -10 c0 -2 -8 -10 -17 -17 -16 -13 -17 -12 -4 4 13 16 21 21 21
13z m6 -34 c-17 -16 -18 -16 -5 5 7 12 15 20 18 17 3 -2 -3 -12 -13 -22z m-75
-9 c13 -16 12 -17 -3 -4 -10 7 -18 15 -18 17 0 8 8 3 21 -13z m106 -8 c0 -8
-3 -13 -5 -10 -3 3 -15 -3 -26 -12 -15 -13 -14 -10 3 10 29 32 28 31 28 12z
m-71 -47 c12 -14 13 -18 3 -10 -9 6 -18 10 -21 7 -2 -3 -5 2 -5 10 0 19 0 19
23 -7z m74 18 c0 -2 -8 -10 -17 -17 -16 -13 -17 -12 -4 4 13 16 21 21 21 13z
m-25 -44 c-3 -3 -11 0 -18 7 -9 10 -8 11 6 5 10 -3 15 -9 12 -12z m-39 -4 c5
4 6 3 2 -2 -4 -5 -2 -16 4 -25 10 -12 7 -12 -8 2 -11 9 -23 15 -26 12 -2 -3
-5 2 -5 10 0 10 4 12 12 5 7 -5 16 -6 21 -2z m14 -64 c0 -8 -19 -13 -24 -6 -3
5 1 9 9 9 8 0 15 -2 15 -3z"/>
<path d="M1525 1237 c-8 -4 -33 -42 -56 -85 -24 -42 -76 -135 -116 -205 -40
-71 -73 -133 -73 -139 0 -6 20 -45 44 -87 24 -42 56 -98 72 -126 15 -27 43
-77 61 -110 19 -33 39 -70 45 -82 6 -13 14 -23 18 -23 5 0 100 165 216 376
l28 51 66 -116 c36 -64 90 -160 119 -214 30 -53 57 -97 60 -97 12 1 242 423
237 436 -3 7 -11 12 -18 10 -7 -1 -10 -1 -5 1 4 3 7 11 7 20 0 9 -6 12 -19 8
-11 -3 -24 1 -32 12 -13 16 -12 17 4 4 9 -8 20 -11 23 -8 8 7 -4 44 -19 59 -7
7 -20 29 -30 48 -9 19 -27 53 -40 75 -12 22 -42 75 -65 118 -37 65 -48 77 -70
78 -183 4 -446 2 -457 -4z m519 -146 c-2 -3 -12 3 -22 13 -16 17 -16 18 5 5
12 -7 20 -15 17 -18z m-34 -6 c14 -19 14 -19 -2 -6 -10 7 -18 18 -18 24 0 6 1
8 3 6 1 -2 9 -13 17 -24z m-87 -20 c-3 -9 -8 -14 -10 -11 -3 3 -2 9 2 15 9 16
15 13 8 -4z m64 -10 c0 -8 -4 -12 -9 -9 -4 3 -8 9 -8 15 0 5 4 9 8 9 5 0 9 -7
9 -15z m89 -13 c-17 -16 -18 -16 -5 5 7 12 15 20 18 17 3 -2 -3 -12 -13 -22z
m-107 -15 c-2 -2 -11 -8 -20 -15 -12 -9 -16 -9 -16 1 0 7 9 14 20 14 11 1 18
1 16 0z m132 -14 c13 -16 12 -17 -3 -4 -17 13 -22 21 -14 21 2 0 10 -8 17 -17z
m-206 -13 c-3 -5 -12 -10 -18 -10 -7 0 -6 4 3 10 19 12 23 12 15 0z m75 -5
c-10 -12 -10 -18 1 -32 12 -17 12 -17 -6 -1 -15 14 -16 20 -5 32 7 9 15 16 17
16 3 0 0 -7 -7 -15z m40 -14 c0 -6 -4 -12 -8 -15 -5 -3 -9 1 -9 9 0 8 4 15 9
15 4 0 8 -4 8 -9z m77 3 c-8 -8 -48 -13 -43 -6 2 4 14 8 26 9 12 1 20 0 17 -3z
m49 -6 c3 -4 -1 -5 -10 -4 -8 1 -18 5 -22 8 -3 4 1 5 10 4 8 -1 18 -5 22 -8z
m-234 -33 c2 3 5 -2 5 -10 0 -19 0 -19 -23 7 -12 14 -13 18 -3 10 9 -6 18 -10
21 -7z m54 -7 c12 -14 13 -18 3 -10 -9 6 -18 10 -21 7 -2 -3 -5 2 -5 10 0 19
0 19 23 -7z m184 7 c-7 -8 -17 -15 -23 -15 -6 0 -2 7 9 15 25 19 30 19 14 0z
m-259 -32 c13 -16 12 -17 -3 -4 -17 13 -22 21 -14 21 2 0 10 -8 17 -17z m63
-23 c-6 -6 -10 -3 -10 10 0 13 4 16 10 10 7 -7 7 -13 0 -20z m162 4 c1 -9 0
-13 -4 -10 -3 4 -7 14 -8 22 -1 9 0 13 4 10 3 -4 7 -14 8 -22z m-56 12 c0 -2
-7 -7 -16 -10 -8 -3 -12 -2 -9 4 6 10 25 14 25 6z m-40 -10 c0 -2 -8 -10 -17
-17 -16 -13 -17 -12 -4 4 13 16 21 21 21 13z m-110 -10 c0 -2 -8 -10 -17 -17
-16 -13 -17 -12 -4 4 13 16 21 21 21 13z m189 -30 c-3 -3 -11 5 -18 17 -13 21
-12 21 5 5 10 -10 16 -20 13 -22z m-273 0 c0 -14 -5 -21 -9 -17 -4 4 -5 15 -1
24 9 24 12 21 10 -7z m214 20 c0 -2 -8 -10 -17 -17 -16 -13 -17 -12 -4 4 13
16 21 21 21 13z m-69 -23 c12 -16 12 -17 -2 -6 -9 7 -20 9 -24 5 -5 -4 -5 -1
-1 6 9 16 11 15 27 -5z m100 0 c13 -16 12 -17 -3 -4 -17 13 -22 21 -14 21 2 0
10 -8 17 -17z m104 -15 c-7 -32 -13 -32 -11 1 0 16 4 27 8 25 4 -2 5 -14 3
-26z m-318 -3 c0 -8 -4 -12 -9 -9 -5 3 -6 10 -3 15 9 13 12 11 12 -6z m34 -2
c13 -16 12 -17 -3 -4 -17 13 -22 21 -14 21 2 0 10 -8 17 -17z m124 -1 c-3 -3
-11 0 -18 7 -9 10 -8 11 6 5 10 -3 15 -9 12 -12z m-40 -4 c5 4 5 1 1 -6 -6
-10 -11 -10 -22 -1 -8 6 -14 14 -14 16 0 3 6 0 13 -6 8 -6 18 -7 22 -3z m142
-3 c0 -8 -4 -12 -9 -9 -5 3 -6 10 -3 15 9 13 12 11 12 -6z"/>
</g>
</svg>
